<svg version="1.1" id="Layer_1" xmlns="http://www.w3.org/2000/svg" xmlns:xlink="http://www.w3.org/1999/xlink" x="0px" y="0px"
	 width="100%" viewBox="0 0 346 346" enable-background="new 0 0 346 346" xml:space="preserve">
<path fill="#000000" opacity="1.000000" stroke="none" 
	d="
M188.000000,347.000000 
	C125.333344,347.000000 63.166687,347.000000 1.000025,347.000000 
	C1.000017,231.666702 1.000017,116.333397 1.000008,1.000072 
	C116.333282,1.000048 231.666565,1.000048 346.999878,1.000024 
	C346.999939,116.333260 346.999939,231.666519 346.999969,346.999878 
	C294.166656,347.000000 241.333328,347.000000 188.000000,347.000000 
M108.195839,131.216965 
	C106.964996,130.758026 105.765846,130.076019 104.495445,129.895554 
	C102.837944,129.660080 101.123993,129.821991 99.434334,129.812912 
	C99.586617,131.391693 99.295135,133.201111 99.973541,134.506454 
	C102.094337,138.587128 105.190804,141.579620 111.375816,141.779526 
	C110.465080,137.853195 109.659019,134.378174 109.645393,131.013336 
	C116.855507,134.117386 119.463768,133.707077 122.139984,129.047791 
	C116.828163,125.649353 112.570175,126.283813 108.195839,131.216965 
M166.000244,141.462067 
	C166.296188,143.110199 166.592148,144.758331 167.104355,147.610779 
	C159.383163,142.874863 150.667969,142.168869 146.810974,133.887604 
	C146.547562,133.322037 144.969315,133.368820 144.002548,133.130829 
	C143.805267,134.318069 143.162277,135.645248 143.483932,136.669540 
	C145.393066,142.748962 149.768127,146.438904 155.389801,149.234802 
	C165.872406,154.448227 171.089981,171.703400 165.668549,182.289062 
	C165.558258,182.504364 165.104202,182.543610 164.002075,182.999115 
	C160.981247,179.981064 157.468521,176.945816 154.526093,173.432892 
	C148.442307,166.169571 141.795105,159.826019 132.202942,157.656845 
	C129.080246,156.950684 125.861656,156.668594 122.686920,156.192551 
	C122.508896,156.766800 122.330879,157.341034 122.152855,157.915268 
	C128.287949,161.699173 134.668137,165.144608 140.490433,169.360504 
	C146.526108,173.730942 150.040802,180.012558 151.757660,187.693954 
	C150.621735,187.693954 149.977631,187.768799 149.355804,187.682709 
	C140.535233,186.461548 131.706757,185.290649 122.903267,183.955460 
	C117.031685,183.064957 110.932945,182.605103 106.575562,177.134003 
	C105.672394,178.205139 104.203461,179.472778 104.389847,179.801254 
	C105.887978,182.441742 107.698219,184.905151 109.466057,187.500519 
	C101.953194,193.522232 93.913330,197.474045 83.615959,194.240189 
	C78.993477,192.788513 73.781960,195.893066 70.913322,201.026688 
	C73.656273,201.866272 76.811096,202.007599 78.665184,203.632828 
	C80.494804,205.236618 81.008484,208.341690 82.725128,212.191010 
	C86.033661,209.311203 88.987564,206.739975 91.941551,204.168854 
	C93.141418,203.124481 94.183479,201.737137 95.570282,201.098694 
	C100.226562,198.955093 105.043915,197.164291 109.729500,195.080750 
	C117.858772,191.465851 126.119728,188.678070 135.146439,191.056229 
	C147.122238,194.211334 157.321671,199.931870 160.245850,212.987717 
	C161.598679,219.027832 161.443680,225.608887 160.857162,231.839722 
	C159.441788,246.875549 151.681564,259.260345 136.541046,262.664124 
	C132.509872,263.570374 128.417587,264.201202 124.365715,265.019653 
	C116.586868,266.590881 108.816872,268.205902 101.043198,269.802765 
	C101.119621,270.304352 101.196037,270.805939 101.272461,271.307526 
	C115.100266,270.588745 128.928070,269.869934 142.755875,269.151154 
	C142.851532,269.698761 142.947189,270.246368 143.042847,270.793976 
	C139.843536,271.959503 136.691025,273.283386 133.431931,274.246613 
	C130.082245,275.236572 126.628517,275.874390 123.220322,276.666290 
	C123.273849,277.253418 123.327377,277.840576 123.380905,278.427704 
	C132.445541,278.022247 141.592606,278.215332 150.543381,276.982941 
	C155.767914,276.263580 160.679901,271.714752 165.730164,271.718933 
	C170.989670,271.723236 176.109604,275.991333 181.535675,276.854767 
	C190.159454,278.227081 198.979080,278.610260 207.730942,278.841644 
	C212.623367,278.971008 217.546219,277.950775 222.455353,277.448547 
	C218.755447,276.009155 215.055496,275.496216 211.353317,275.000061 
	C202.295700,273.786163 193.324432,272.287933 185.618591,266.834534 
	C179.547653,262.538147 177.561737,256.520325 180.044693,249.555420 
	C185.098877,262.998505 195.261993,268.570862 208.886795,269.074097 
	C215.011276,269.300354 221.123352,269.848267 227.243484,270.209381 
	C233.745255,270.593079 240.249893,270.928375 246.753296,271.284790 
	C246.806839,270.793304 246.860382,270.301819 246.913940,269.810333 
	C235.804138,267.543579 224.708435,265.204651 213.580917,263.028534 
	C199.864563,260.346100 190.775253,252.787979 188.040268,238.732681 
	C187.128876,234.048874 186.587097,229.218994 186.562683,224.452377 
	C186.513626,214.868561 187.321503,205.298584 195.786697,198.844574 
	C207.953720,189.568207 221.134247,187.414642 235.309067,194.110535 
	C239.651001,196.161560 243.923462,198.456223 248.446533,199.996948 
	C252.119690,201.248123 255.138412,202.416275 257.123505,206.286530 
	C258.801117,209.557266 262.329407,211.150925 266.313202,210.648117 
	C267.522125,204.612473 267.535339,204.643723 273.328033,202.194229 
	C274.593231,201.659256 275.726868,200.813278 277.121185,199.992767 
	C273.229858,195.037750 268.353241,192.766174 263.149536,194.340408 
	C252.757904,197.484085 244.932312,193.328781 237.737946,187.568130 
	C239.293457,185.711014 240.975098,184.084976 242.146118,182.149918 
	C242.764694,181.127731 242.493835,179.567291 242.624557,178.249878 
	C241.488312,178.490067 240.301285,178.593842 239.224747,178.994446 
	C234.964676,180.579788 230.841599,182.660004 226.468369,183.774200 
	C222.996140,184.658829 219.209717,184.222168 215.604950,184.694153 
	C209.286301,185.521469 202.999939,186.595551 196.777161,187.554382 
	C196.591049,187.286453 196.421860,187.154831 196.427063,187.030533 
	C196.447372,186.547104 196.459396,186.048386 196.587448,185.586655 
	C199.234695,176.040421 205.366592,169.510590 214.005035,164.933136 
	C218.020599,162.805298 221.710663,160.063171 225.548279,157.599518 
	C225.261124,157.185837 224.973969,156.772171 224.686813,156.358505 
	C202.229492,157.147690 192.261475,174.082550 180.998795,190.645279 
	C180.998795,182.966324 181.142319,176.023193 180.963837,169.088333 
	C180.720139,159.620300 184.664291,152.958099 193.277542,148.838791 
	C198.275085,146.448685 203.023773,143.465958 203.976608,137.281342 
	C204.215973,135.727692 203.723557,134.061295 203.567429,132.446716 
	C202.368439,133.379684 200.721344,134.064026 200.043335,135.286041 
	C195.718430,143.080856 187.621552,144.091370 179.878616,147.589111 
	C181.884476,140.868988 183.682083,135.222687 185.191742,129.500381 
	C185.530731,128.215439 184.862900,126.664879 184.658569,125.236595 
	C183.504425,126.142471 181.705872,126.831680 181.315018,127.994186 
	C180.060394,131.725723 178.054611,133.802658 173.878433,134.069305 
	C169.239059,134.365479 168.093018,131.130142 166.444275,128.021957 
	C165.774551,126.759430 164.512833,125.810928 163.520493,124.719536 
	C162.824707,125.089668 162.128937,125.459801 161.433151,125.829933 
	C162.906143,130.783112 164.379120,135.736298 166.000244,141.462067 
M131.754669,257.145966 
	C141.779358,256.630737 148.413162,252.696518 149.945206,245.729950 
	C122.176544,248.095642 95.481361,253.300705 70.758781,266.219727 
	C77.697289,265.614594 84.428879,264.082672 91.235321,263.038879 
	C104.435234,261.014679 117.677246,259.264862 131.754669,257.145966 
M240.151093,252.196182 
	C226.079224,249.238754 211.980408,246.503662 196.855438,246.097336 
	C202.143112,255.566238 210.508286,256.814972 218.945023,257.986847 
	C232.502365,259.869995 246.059570,261.757416 259.600739,263.752197 
	C265.307739,264.592926 270.973877,265.711304 276.658569,266.703491 
	C265.622650,259.464691 253.244629,256.050903 240.151093,252.196182 
M243.474243,205.994934 
	C240.614014,203.918411 237.753769,201.841888 234.343552,199.366074 
	C233.421570,202.180954 232.835434,203.970428 232.311066,205.571350 
	C229.226700,205.964081 226.489166,206.312668 224.379257,206.581314 
	C227.032578,210.406296 229.154678,213.819702 231.638245,216.945969 
	C234.113663,220.061951 236.930878,222.935303 241.776733,221.657272 
	C241.855743,220.585831 241.757858,219.555466 242.038132,218.641006 
	C242.509979,217.101532 243.221970,215.635651 243.832947,214.138824 
	C245.014053,215.327072 246.534653,216.328598 247.310654,217.739624 
	C249.384384,221.510345 251.044952,225.563721 256.258881,225.726257 
	C259.558777,217.889526 256.961121,210.620514 249.681122,206.919861 
	C247.032944,210.468124 247.032944,210.468124 243.474243,205.994934 
M99.083885,208.001831 
	C98.452789,207.692444 97.681808,206.975128 97.212059,207.136230 
	C92.000473,208.923462 87.813240,219.159851 90.451721,224.090302 
	C90.878716,224.888199 93.734596,225.474457 94.229309,224.962296 
	C96.550056,222.559647 98.346855,219.661499 100.521317,217.102219 
	C101.521263,215.925323 102.958649,215.120117 104.197662,214.146362 
	C104.793869,215.319656 105.614029,216.436676 105.926811,217.681198 
	C106.278954,219.082306 106.173752,220.598358 106.356567,223.457474 
	C109.661736,221.577423 112.823975,220.631363 114.682732,218.531479 
	C117.868027,214.932983 120.238297,210.613037 123.129120,206.331909 
	C119.477982,205.441330 113.311676,207.764603 113.714378,198.825485 
	C109.674423,201.970184 106.821907,204.326202 103.816246,206.467224 
	C102.511314,207.396759 100.891289,207.883987 99.083885,208.001831 
M233.013321,152.499725 
	C229.562744,156.159897 226.112183,159.820068 222.661606,163.480240 
	C222.746902,163.906616 222.832184,164.332993 222.917465,164.759369 
	C226.885757,163.710098 231.056015,163.113480 234.755920,161.462708 
	C237.519547,160.229660 239.528824,159.711823 242.473511,161.062592 
	C249.481247,164.277161 255.586288,161.883514 259.736176,154.697540 
	C255.150421,151.423477 250.127014,152.020172 244.906570,153.427490 
	C245.694794,150.405441 246.343613,147.917923 247.130020,144.902863 
	C240.707153,144.665176 236.379395,146.909058 233.013321,152.499725 
M118.018356,157.462051 
	C113.888107,151.507523 110.381294,144.769028 100.968262,144.486923 
	C101.417824,147.362350 101.846649,150.105087 102.161858,152.121155 
	C98.077942,152.543671 94.184250,152.657959 90.429077,153.438583 
	C88.008728,153.941711 87.442558,155.622925 89.330719,157.859787 
	C92.817566,161.990601 99.892342,163.597534 105.766922,160.701385 
	C108.435608,159.385712 110.002014,159.641083 112.305229,161.316895 
	C116.000702,164.005722 120.297997,164.787903 125.888725,163.191620 
	C122.965759,161.119431 120.745308,159.545288 118.018356,157.462051 
M162.002151,98.493729 
	C166.150879,101.432564 170.299622,104.371407 173.729645,106.801132 
	C177.017319,104.574333 180.212219,102.213860 183.596100,100.165596 
	C188.378754,97.270660 190.558014,92.439636 189.006851,87.145462 
	C181.516296,86.710655 177.564026,91.725395 173.888016,97.499466 
	C169.820190,92.189331 166.241150,86.648804 158.371933,87.272926 
	C157.615891,91.638901 158.412109,95.116692 162.002151,98.493729 
M71.580940,171.763229 
	C68.737534,173.582626 65.894119,175.402023 63.050709,177.221420 
	C63.247509,177.872559 63.444305,178.523682 63.641102,179.174820 
	C66.712753,180.032867 69.784416,180.890915 72.791496,181.730927 
	C72.593124,183.909805 72.381737,186.231674 72.165558,188.606201 
	C82.132767,189.999207 83.617546,181.597168 87.885963,176.701691 
	C82.524590,171.714508 79.199104,170.576996 71.580940,171.763229 
M273.435486,188.940079 
	C279.242950,187.397766 272.903839,183.745850 274.607330,181.677597 
	C277.801636,180.830109 280.844147,180.022903 284.122437,179.153137 
	C278.294983,168.865189 267.853485,168.326248 259.686584,177.020416 
	C263.973358,181.023621 265.046295,188.555618 273.435486,188.940079 
M194.506943,133.988617 
	C196.545837,132.216507 198.309753,129.770538 200.677505,128.804367 
	C206.690918,126.350533 208.847000,121.683159 209.799698,115.891869 
	C198.659271,112.817825 187.628525,124.212898 189.780807,136.991074 
	C191.305634,136.087677 192.647369,135.292755 194.506943,133.988617 
M140.458618,123.830132 
	C146.034683,128.016006 151.610764,132.201874 157.349915,136.510162 
	C160.449799,125.768585 149.348007,112.791672 137.727921,115.909325 
	C138.522980,118.348343 139.308502,120.758141 140.458618,123.830132 
M226.659790,114.989807 
	C223.914154,115.085861 224.551575,113.560707 224.862534,111.773460 
	C225.107162,110.367531 224.591644,108.829346 224.413773,107.349915 
	C222.896378,107.747726 220.589523,107.658829 219.993912,108.624939 
	C216.893204,113.654236 214.228134,118.952118 211.218781,124.512459 
	C223.784439,125.875969 230.193756,123.200066 231.544052,116.521416 
	C230.183411,116.035233 228.799957,115.540894 226.659790,114.989807 
M132.724503,124.857124 
	C133.650909,124.742668 134.577301,124.628212 135.088425,124.565063 
	C133.960220,120.595490 133.218582,116.727684 131.749908,113.159096 
	C130.161743,109.300117 127.280113,106.751198 122.052956,107.416222 
	C122.413719,109.874832 122.735771,112.069595 123.061378,114.288582 
	C120.527206,115.113823 118.106728,115.902039 115.303276,116.814964 
	C119.445595,123.644035 125.005562,125.723671 132.724503,124.857124 
M187.431625,69.074127 
	C184.539536,72.901321 183.218292,77.045151 184.522125,81.897957 
	C199.153809,77.258820 199.153809,77.258820 202.842926,70.508125 
	C201.035645,69.763390 199.276871,69.038643 197.536591,68.321510 
	C197.536591,66.784142 197.536591,65.235329 197.536591,61.907726 
	C193.641403,64.609474 190.799683,66.580528 187.431625,69.074127 
M161.116867,81.327698 
	C161.767914,81.056282 162.952255,80.846397 162.991714,80.504417 
	C163.891754,72.703773 160.192108,64.784508 151.710526,63.745052 
	C149.512268,66.587448 147.693985,68.938492 145.289246,72.047874 
	C146.507233,73.326462 147.957352,75.681915 150.065414,76.868439 
	C153.314041,78.696922 157.013611,79.724228 161.116867,81.327698 
M126.966789,225.599457 
	C133.695877,221.246887 135.738983,214.154419 132.044174,207.973801 
	C122.857536,209.839767 117.369095,218.644226 120.021988,228.275726 
	C122.161171,227.528290 124.261559,226.794403 126.966789,225.599457 
M215.109055,219.006927 
	C218.148071,221.869202 220.934845,225.093292 224.322815,227.454987 
	C226.284500,228.822464 228.795593,228.459976 229.010406,224.784454 
	C229.461548,217.065659 222.468582,208.750000 213.772919,208.026489 
	C214.181961,211.538055 214.571228,214.879776 215.109055,219.006927 
M216.906418,142.947815 
	C209.323410,140.528580 201.805756,146.754944 200.676590,156.389877 
	C208.910599,157.857742 216.428085,152.029099 216.906418,142.947815 
M142.475632,145.996658 
	C138.921249,143.148376 135.154984,141.118088 128.766632,143.026871 
	C131.502380,146.994843 133.215149,151.098343 136.277573,153.426407 
	C138.891479,155.413498 143.055969,155.360870 146.534561,156.210510 
	C145.357239,152.978989 144.179932,149.747482 142.475632,145.996658 
M202.481934,97.182739 
	C201.662109,100.963943 200.563004,104.711952 200.108276,108.536568 
	C199.724716,111.762733 201.382904,112.773582 204.381714,111.078247 
	C208.593094,108.697411 211.134811,105.213585 210.913574,100.311638 
	C210.808395,97.981125 209.830124,95.690018 209.247375,93.381073 
	C207.155472,94.454903 205.063568,95.528732 202.481934,97.182739 
M79.499962,141.202164 
	C84.799339,143.414139 88.808617,140.315674 93.316559,138.314224 
	C86.852905,130.613953 76.253128,129.810120 70.968224,136.786087 
	C73.593582,138.221848 76.159859,139.625305 79.499962,141.202164 
M267.570557,141.186584 
	C270.608063,139.670639 273.645569,138.154678 277.392242,136.284790 
	C267.607269,129.950851 259.027679,131.047684 253.693054,139.300415 
	C258.393219,140.103058 262.624146,140.825562 267.570557,141.186584 
M137.038223,102.929092 
	C138.019577,108.067307 141.627701,110.611893 146.207703,112.464554 
	C148.984116,107.222008 148.147614,102.281792 145.140518,97.943878 
	C143.718735,95.892868 140.889008,94.817879 138.697205,93.300667 
	C138.131516,95.561584 137.531601,97.814835 137.022308,100.088379 
	C136.880997,100.719170 137.008575,101.410202 137.038223,102.929092 
M121.983757,171.765015 
	C126.039856,179.879227 135.584244,183.001328 141.699844,176.847534 
	C137.783615,174.220383 134.346527,171.122375 130.315338,169.506699 
	C127.886452,168.533203 123.968529,167.156036 121.983757,171.765015 
M169.977036,76.409805 
	C167.581787,74.510559 166.116745,74.640640 166.011368,78.131569 
	C165.837814,83.881165 169.625168,86.551491 175.088638,89.557388 
	C177.013824,87.227188 179.438202,85.039284 180.842102,82.323792 
	C181.736649,80.593521 181.118576,78.081238 181.178726,75.919594 
	C179.592728,76.314255 177.425949,76.194344 176.532578,77.202667 
	C174.114059,79.932312 172.483505,77.762352 169.977036,76.409805 
M268.725830,157.072632 
	C265.993591,157.991486 263.261353,158.910339 260.387054,159.876968 
	C266.044434,168.127151 276.796387,169.313660 282.431000,161.631989 
	C277.903107,160.023972 273.718842,158.537994 268.725830,157.072632 
M211.640991,179.999771 
	C217.366287,180.585678 221.659485,178.088455 224.599182,173.429733 
	C225.174240,172.518417 224.569138,169.617813 223.823029,169.313171 
	C217.518295,166.738892 208.001389,172.608719 206.864731,179.696274 
	C208.190155,179.797714 209.497604,179.897781 211.640991,179.999771 
M67.705826,160.828415 
	C65.065025,162.693497 65.852463,164.433640 68.229088,165.474213 
	C74.640182,168.281250 83.223892,166.977585 86.541664,159.851959 
	C80.289780,156.687256 74.226494,156.016342 67.705826,160.828415 
M264.933197,118.046524 
	C257.448090,120.533730 254.404129,123.808884 254.255936,129.534698 
	C263.607727,130.815186 270.154449,126.461868 270.561981,118.259781 
	C268.960327,118.178833 267.356201,118.097763 264.933197,118.046524 
M214.917953,77.085716 
	C214.531067,74.466034 214.144180,71.846359 213.754272,69.206329 
	C205.991974,70.672684 203.421051,77.310959 205.807861,88.192368 
	C210.783218,86.372955 213.151474,82.461403 214.917953,77.085716 
M136.408554,84.895340 
	C137.977478,86.014763 139.546387,87.134186 141.216446,88.325768 
	C144.053467,80.338539 143.026627,74.356735 138.238632,70.899582 
	C137.156448,70.118210 135.531601,69.565247 134.289017,69.758583 
	C133.702133,69.849899 132.901779,72.053612 133.107468,73.125755 
	C133.833389,76.909607 134.952606,80.618004 136.408554,84.895340 
M92.517319,125.129326 
	C87.918373,118.737984 82.099075,116.594948 76.710289,119.308189 
	C79.203789,127.288307 84.993385,130.819092 93.918175,129.389069 
	C93.563286,128.147934 93.226379,126.969696 92.517319,125.129326 
M151.039978,108.996338 
	C152.734039,111.740692 154.428101,114.485046 156.545181,117.914711 
	C161.357422,107.489082 160.863251,101.924774 155.491882,97.531029 
	C151.182953,99.887711 150.731400,103.870720 151.039978,108.996338 
M101.413368,124.357986 
	C106.098053,126.377190 110.496773,125.855896 114.856766,123.207855 
	C109.339493,115.429726 102.441475,113.900276 94.904556,119.981400 
	C96.958778,121.391762 98.856346,122.694572 101.413368,124.357986 
M233.048859,122.170517 
	C233.422867,122.947075 233.593628,124.135910 234.202484,124.436081 
	C239.945328,127.267342 248.325455,124.469429 251.540588,118.776794 
	C244.607635,114.417648 239.293396,115.209923 233.048859,122.170517 
M188.009781,104.895729 
	C188.439529,108.720932 188.869293,112.546127 189.319473,116.553192 
	C194.447830,114.823975 195.211838,113.885239 196.113861,108.901337 
	C196.964523,104.201141 195.477478,100.371902 191.278885,96.489609 
	C190.034149,99.391891 189.034653,101.722382 188.009781,104.895729 
M225.052246,195.938110 
	C219.172607,194.157745 213.649658,194.437363 208.282974,198.340836 
	C216.573151,204.572006 223.495758,204.604187 229.328232,198.560211 
	C228.122101,197.716354 226.960098,196.903381 225.052246,195.938110 
M127.644470,195.004562 
	C124.457733,195.890442 121.270996,196.776306 117.529800,197.816299 
	C124.254265,204.788940 132.217148,204.564819 139.324051,197.343643 
	C135.319901,196.476944 131.913208,195.739563 127.644470,195.004562 
M168.537918,109.055237 
	C166.730179,108.128799 164.922424,107.202362 163.114670,106.275925 
	C162.453949,108.048683 161.182465,109.844055 161.247101,111.589973 
	C161.440369,116.811043 165.107239,120.901634 170.533218,122.589333 
	C173.203552,117.894714 171.260910,113.742531 168.537918,109.055237 
M241.479385,172.990234 
	C242.758224,170.662842 244.037048,168.335449 245.468414,165.730453 
	C235.728699,164.030212 230.225220,168.079956 229.972610,177.758926 
	C233.982956,176.205582 237.461731,174.858139 241.479385,172.990234 
M113.179886,167.120178 
	C109.748154,166.236801 106.316422,165.353439 102.884689,164.470078 
	C102.499001,165.143021 102.113312,165.815964 101.727615,166.488907 
	C103.915131,169.195786 105.644302,172.624878 108.428375,174.391754 
	C110.860893,175.935516 114.480789,175.608322 117.576111,176.107727 
	C116.575439,173.460663 115.587204,170.808746 114.555534,168.173813 
	C114.448097,167.899399 114.083214,167.725800 113.179886,167.120178 
M185.955612,113.061768 
	C185.967651,112.400047 186.138321,111.691971 185.961060,111.085579 
	C185.487610,109.465744 184.864700,107.889580 184.301193,106.296066 
	C182.791260,107.107964 181.088211,107.691055 179.806244,108.773033 
	C175.284088,112.589722 175.671494,117.658249 176.395203,123.087128 
	C181.675781,121.900871 184.329544,118.465042 185.955612,113.061768 
M125.959465,145.001724 
	C124.904770,140.229614 121.950188,137.467346 117.349174,136.155304 
	C115.312424,141.171158 115.511452,145.849930 118.369431,148.633652 
	C120.120651,150.339371 122.684654,151.210602 125.986221,153.081314 
	C125.986221,149.435135 125.986221,147.636505 125.959465,145.001724 
M230.998734,137.862640 
	C230.172623,137.518326 229.181717,136.689240 228.546066,136.905289 
	C222.699417,138.892517 220.614944,144.460068 222.726913,152.026688 
	C229.502563,150.717728 232.867798,145.375717 230.998734,137.862640 
M249.113342,188.593155 
	C253.439651,191.724854 257.922913,191.454407 264.094025,188.558212 
	C260.707489,186.054031 258.265472,183.166962 255.245789,182.305862 
	C251.929321,181.360184 247.687454,181.024109 245.006500,185.252060 
	C246.311432,186.287231 247.442947,187.184845 249.113342,188.593155 
M152.560135,211.828339 
	C154.466248,207.631729 151.292252,205.283768 148.704605,203.693100 
	C145.185135,201.529648 141.014404,200.622818 137.352249,204.532761 
	C140.398636,210.679520 145.473389,212.486877 152.560135,211.828339 
M86.905746,190.408401 
	C93.590141,191.640854 98.610588,189.698532 101.785408,184.470993 
	C98.593376,181.235931 94.542061,181.529312 90.746078,182.389908 
	C87.339317,183.162277 85.084541,187.708649 86.905746,190.408401 
M194.855545,208.522766 
	C193.558716,210.743851 194.137192,211.746262 196.762680,212.007065 
	C202.185226,212.545761 207.127045,209.739227 210.159241,204.128433 
	C203.542389,200.613953 200.489441,201.359726 194.855545,208.522766 
M185.996521,165.523468 
	C186.118301,167.215912 186.240067,168.908371 186.383957,170.907959 
	C195.089783,166.246613 197.066360,162.558182 195.214035,155.359131 
	C189.954620,155.574936 186.888733,158.684525 185.996521,165.523468 
M87.087761,168.190979 
	C89.811531,175.306335 93.236908,177.570023 99.422501,176.342484 
	C99.785378,171.138809 96.586800,166.129883 91.977509,165.263062 
	C90.162018,164.921646 87.438080,163.823318 87.087761,168.190979 
M161.989960,165.585297 
	C161.048187,159.145477 158.186264,156.070541 152.606033,155.502930 
	C151.062164,163.437973 154.201691,168.680313 161.684448,170.327927 
	C161.789352,168.996185 161.891754,167.696259 161.989960,165.585297 
M247.585617,134.685226 
	C247.585617,132.938599 247.585617,131.191971 247.585617,129.483093 
	C240.284790,128.830826 235.181091,134.813309 236.894760,141.868744 
	C241.379501,141.344147 245.125885,139.746140 247.585617,134.685226 
M102.504425,106.987534 
	C106.194229,112.397400 111.076431,113.784966 116.676804,111.015457 
	C114.583138,104.911415 109.286476,102.263863 101.379128,103.571823 
	C101.636147,104.511177 101.885529,105.422630 102.504425,106.987534 
M248.067947,173.743103 
	C247.793701,177.477982 250.136246,177.318665 252.569290,176.608200 
	C256.865662,175.353653 259.960358,170.589050 260.037292,165.400360 
	C253.628143,164.725510 251.309235,166.200729 248.067947,173.743103 
M208.170639,135.910172 
	C209.065048,136.904739 209.928009,138.722946 210.859055,138.758484 
	C216.371338,138.968994 220.634171,135.242416 221.958008,129.537308 
	C213.933395,128.149796 212.148117,128.895432 208.170639,135.910172 
M244.802841,103.219185 
	C237.360870,102.765930 233.291077,105.132767 230.941711,111.280296 
	C237.595642,114.639542 244.792419,110.837997 244.802841,103.219185 
M124.374893,97.750587 
	C125.474785,101.437241 127.461418,104.164810 131.666901,104.492470 
	C131.803223,101.414619 132.784973,98.027290 131.807495,95.357162 
	C131.030212,93.233864 127.858284,91.987183 125.749481,90.351318 
	C125.211815,92.561691 124.674149,94.772072 124.374893,97.750587 
M132.221085,137.601349 
	C134.632660,137.827759 137.044220,138.054184 139.552155,138.289642 
	C138.118423,129.911346 133.706848,127.406830 123.760300,130.381317 
	C126.802666,133.036438 129.181900,135.112839 132.221085,137.601349 
M194.392151,91.789047 
	C194.842712,93.097626 195.293289,94.406204 195.760422,95.762901 
	C202.669937,92.244217 204.190292,86.186043 199.818512,80.236290 
	C195.035965,82.323349 193.702286,86.193192 194.392151,91.789047 
M147.542572,80.353920 
	C143.074112,86.018837 144.484604,91.762299 151.283936,95.588501 
	C154.788483,90.717606 153.577744,84.549507 147.542572,80.353920 
M126.938660,86.399017 
	C128.308029,87.234543 129.677414,88.070061 131.049072,88.906975 
	C134.693497,82.690407 131.803543,76.415245 124.735039,74.869026 
	C123.480965,78.832748 123.416008,82.550369 126.938660,86.399017 
M216.404709,79.159561 
	C215.828903,82.211327 215.253098,85.263092 214.677292,88.314857 
	C215.408157,88.706154 216.139023,89.097450 216.869888,89.488747 
	C219.070724,86.983002 221.754898,84.734489 223.279892,81.869049 
	C224.112106,80.305336 222.980392,77.696426 222.734375,75.558891 
	C220.770294,76.543686 218.806213,77.528481 216.404709,79.159561 
M215.806671,94.819839 
	C215.493073,97.989120 215.179489,101.158401 214.847931,104.509254 
	C222.511749,103.430817 224.700470,97.281769 221.737259,89.904694 
	C219.836151,91.412514 218.070496,92.812920 215.806671,94.819839 
M106.629745,86.913040 
	C105.451790,87.451721 103.480751,87.744553 103.225128,88.569160 
	C101.617249,93.755898 104.517296,98.319725 110.523834,100.042747 
	C111.183128,95.232925 112.135933,90.584839 106.629745,86.913040 
M240.657990,87.040688 
	C235.074600,92.237015 234.370773,96.292213 238.305695,100.616531 
	C243.061905,98.006866 244.910660,93.950447 243.863831,88.716980 
	C243.699478,87.895195 242.200455,87.340363 240.657990,87.040688 
M113.940140,89.322220 
	C115.808609,90.458862 117.677078,91.595505 119.645569,92.792992 
	C122.554283,85.259125 119.219627,79.846703 111.656288,80.317009 
	C112.275642,83.208504 112.867805,85.973106 113.940140,89.322220 
M146.962692,220.643829 
	C145.018631,217.970932 143.171326,215.212784 140.995834,212.743790 
	C140.751343,212.466309 137.577499,213.838684 137.585114,214.422211 
	C137.632858,218.083740 138.208908,221.855759 142.182953,223.472412 
	C144.095337,224.250351 146.614349,225.031570 146.962692,220.643829 
M202.415253,216.021683 
	C201.793976,218.811295 201.172684,221.600906 200.392487,225.103989 
	C209.259521,222.341995 211.057083,219.330353 208.925781,211.490051 
	C206.776794,212.885422 204.824799,214.152893 202.415253,216.021683 
M229.938492,81.582817 
	C226.276535,84.562561 226.719833,88.416260 227.416885,92.431374 
	C234.696198,90.503006 237.182281,85.459633 233.850357,79.251617 
	C232.722107,79.855469 231.591080,80.460815 229.938492,81.582817 
M73.714867,151.272064 
	C77.280144,152.151611 80.848053,153.052292 84.160629,150.305222 
	C79.365425,144.151306 75.610260,143.404221 69.019455,147.368561 
	C70.409645,148.628845 71.700241,149.798843 73.714867,151.272064 
M265.302277,151.893372 
	C270.280701,152.241562 275.203186,152.460312 278.192902,145.755905 
	C274.899780,145.511642 272.163513,144.865921 269.561554,145.216553 
	C265.364258,145.782181 263.354156,148.752747 265.302277,151.893372 
M166.489944,59.569145 
	C162.540344,65.984207 164.578857,71.220627 171.682648,72.408592 
	C172.099274,67.469749 173.177734,62.410625 166.489944,59.569145 
M175.425720,66.156685 
	C175.645508,68.371887 175.865311,70.587097 176.124939,73.203796 
	C183.582031,69.431030 184.743607,65.050095 180.052979,58.912346 
	C178.513916,61.292839 177.158600,63.389160 175.425720,66.156685 
M97.580490,107.351616 
	C100.694092,101.871719 98.118515,96.871384 91.697731,95.930588 
	C90.148117,102.660713 91.057762,104.644218 97.580490,107.351616 
M253.940063,115.959976 
	C257.299683,116.114044 260.675507,116.306984 262.385010,112.467354 
	C257.644318,108.613876 253.287933,108.482948 247.730042,112.535484 
	C249.712418,113.761681 251.429810,114.823967 253.940063,115.959976 
M255.912918,103.109138 
	C256.262146,100.723412 256.611359,98.337685 257.003967,95.655693 
	C249.386795,96.826515 247.882156,99.548973 249.958389,107.744591 
	C251.985428,106.310028 253.773849,105.044342 255.912918,103.109138 
M86.861633,110.787895 
	C84.707008,112.565277 84.889748,113.906418 87.446281,115.179085 
	C91.387352,117.140999 95.601273,116.152412 100.411110,110.830330 
	C95.336197,110.620453 91.419456,110.458473 86.861633,110.787895 
M117.495522,95.032860 
	C116.242607,94.410675 114.989693,93.788490 113.312622,92.955673 
	C113.312622,95.961266 112.538719,98.689949 113.520744,100.424507 
	C114.597115,102.325699 117.293747,103.309578 119.284294,104.693199 
	C119.532089,102.752487 120.064499,100.790421 119.921120,98.879051 
	C119.834885,97.729355 118.695732,96.658646 117.495522,95.032860 
M231.014923,104.377449 
	C234.369781,101.491554 236.266220,98.224388 233.634918,92.769539 
	C231.341171,94.837563 229.061783,96.234932 227.715759,98.254410 
	C225.482071,101.605644 227.062469,104.887939 231.014923,104.377449 
M92.701576,148.643265 
	C94.323708,147.171616 95.945831,145.699982 97.567955,144.228333 
	C92.265244,142.791626 87.672852,141.771408 83.844193,147.648834 
	C87.049210,148.131119 89.503067,148.500366 92.701576,148.643265 
M226.128036,127.984505 
	C226.054794,129.085739 225.477280,130.675186 225.992157,131.207047 
	C228.815445,134.123306 234.037537,133.424286 237.036835,129.740707 
	C233.967056,127.140335 230.652618,126.229919 226.128036,127.984505 
M258.245514,148.944473 
	C259.765045,148.219772 261.284576,147.495071 262.804108,146.770370 
	C262.795807,146.121857 262.787506,145.473358 262.779205,144.824844 
	C258.799652,144.070099 254.820084,143.315338 250.840515,142.560593 
	C250.532318,143.360931 250.224136,144.161285 249.915939,144.961624 
	C252.436081,146.295563 254.956238,147.629501 258.245514,148.944473 
z"/>
<path fill="#30694B" opacity="1.000000" stroke="none" 
	d="
M165.926178,141.075775 
	C164.379120,135.736298 162.906143,130.783112 161.433151,125.829933 
	C162.128937,125.459801 162.824707,125.089668 163.520493,124.719536 
	C164.512833,125.810928 165.774551,126.759430 166.444275,128.021957 
	C168.093018,131.130142 169.239059,134.365479 173.878433,134.069305 
	C178.054611,133.802658 180.060394,131.725723 181.315018,127.994186 
	C181.705872,126.831680 183.504425,126.142471 184.658569,125.236603 
	C184.862900,126.664879 185.530731,128.215439 185.191742,129.500381 
	C183.682083,135.222687 181.884476,140.868988 179.878616,147.589111 
	C187.621552,144.091370 195.718430,143.080856 200.043335,135.286041 
	C200.721344,134.064026 202.368439,133.379684 203.567429,132.446716 
	C203.723557,134.061295 204.215973,135.727692 203.976608,137.281342 
	C203.023773,143.465958 198.275085,146.448685 193.277542,148.838791 
	C184.664291,152.958099 180.720139,159.620300 180.963837,169.088333 
	C181.142319,176.023193 180.998795,182.966324 180.998795,190.645279 
	C192.261475,174.082550 202.229492,157.147690 224.686813,156.358505 
	C224.973969,156.772171 225.261124,157.185837 225.548279,157.599518 
	C221.710663,160.063171 218.020599,162.805298 214.005035,164.933136 
	C205.366592,169.510590 199.234695,176.040421 196.587448,185.586655 
	C196.459396,186.048386 196.447372,186.547104 196.427063,187.030533 
	C196.421860,187.154831 196.591049,187.286453 196.777161,187.554382 
	C202.999939,186.595551 209.286301,185.521469 215.604950,184.694153 
	C219.209717,184.222168 222.996140,184.658829 226.468369,183.774200 
	C230.841599,182.660004 234.964676,180.579788 239.224747,178.994446 
	C240.301285,178.593842 241.488312,178.490067 242.624557,178.249878 
	C242.493835,179.567291 242.764694,181.127731 242.146118,182.149918 
	C240.975098,184.084976 239.293457,185.711014 237.737946,187.568130 
	C244.932312,193.328781 252.757904,197.484085 263.149536,194.340408 
	C268.353241,192.766174 273.229858,195.037750 277.121185,199.992767 
	C275.726868,200.813278 274.593231,201.659256 273.328033,202.194229 
	C267.535339,204.643723 267.522125,204.612473 266.313202,210.648117 
	C262.329407,211.150925 258.801117,209.557266 257.123505,206.286530 
	C255.138412,202.416275 252.119690,201.248123 248.446533,199.996948 
	C243.923462,198.456223 239.651001,196.161560 235.309067,194.110535 
	C221.134247,187.414642 207.953720,189.568207 195.786697,198.844574 
	C187.321503,205.298584 186.513626,214.868561 186.562683,224.452377 
	C186.587097,229.218994 187.128876,234.048874 188.040268,238.732681 
	C190.775253,252.787979 199.864563,260.346100 213.580917,263.028534 
	C224.708435,265.204651 235.804138,267.543579 246.913940,269.810333 
	C246.860382,270.301819 246.806839,270.793304 246.753296,271.284790 
	C240.249893,270.928375 233.745255,270.593079 227.243484,270.209381 
	C221.123352,269.848267 215.011276,269.300354 208.886795,269.074097 
	C195.261993,268.570862 185.098877,262.998505 180.044693,249.555420 
	C177.561737,256.520325 179.547653,262.538147 185.618591,266.834534 
	C193.324432,272.287933 202.295700,273.786163 211.353317,275.000061 
	C215.055496,275.496216 218.755447,276.009155 222.455353,277.448547 
	C217.546219,277.950775 212.623367,278.971008 207.730942,278.841644 
	C198.979080,278.610260 190.159454,278.227081 181.535675,276.854767 
	C176.109604,275.991333 170.989670,271.723236 165.730164,271.718933 
	C160.679901,271.714752 155.767914,276.263580 150.543381,276.982941 
	C141.592606,278.215332 132.445541,278.022247 123.380905,278.427704 
	C123.327377,277.840576 123.273849,277.253418 123.220322,276.666290 
	C126.628517,275.874390 130.082245,275.236572 133.431931,274.246613 
	C136.691025,273.283386 139.843536,271.959503 143.042847,270.793976 
	C142.947189,270.246368 142.851532,269.698761 142.755875,269.151154 
	C128.928070,269.869934 115.100266,270.588745 101.272461,271.307526 
	C101.196037,270.805939 101.119621,270.304352 101.043198,269.802765 
	C108.816872,268.205902 116.586868,266.590881 124.365715,265.019653 
	C128.417587,264.201202 132.509872,263.570374 136.541046,262.664124 
	C151.681564,259.260345 159.441788,246.875549 160.857162,231.839722 
	C161.443680,225.608887 161.598679,219.027832 160.245850,212.987717 
	C157.321671,199.931870 147.122238,194.211334 135.146439,191.056229 
	C126.119728,188.678070 117.858772,191.465851 109.729500,195.080750 
	C105.043915,197.164291 100.226562,198.955093 95.570282,201.098694 
	C94.183479,201.737137 93.141418,203.124481 91.941551,204.168854 
	C88.987564,206.739975 86.033661,209.311203 82.725128,212.191010 
	C81.008484,208.341690 80.494804,205.236618 78.665184,203.632828 
	C76.811096,202.007599 73.656273,201.866272 70.913322,201.026688 
	C73.781960,195.893066 78.993477,192.788513 83.615959,194.240189 
	C93.913330,197.474045 101.953194,193.522232 109.466057,187.500519 
	C107.698219,184.905151 105.887978,182.441742 104.389847,179.801254 
	C104.203461,179.472778 105.672394,178.205139 106.575562,177.134003 
	C110.932945,182.605103 117.031685,183.064957 122.903267,183.955460 
	C131.706757,185.290649 140.535233,186.461548 149.355804,187.682709 
	C149.977631,187.768799 150.621735,187.693954 151.757660,187.693954 
	C150.040802,180.012558 146.526108,173.730942 140.490433,169.360504 
	C134.668137,165.144608 128.287949,161.699173 122.152855,157.915268 
	C122.330879,157.341034 122.508896,156.766800 122.686920,156.192551 
	C125.861656,156.668594 129.080246,156.950684 132.202942,157.656845 
	C141.795105,159.826019 148.442307,166.169571 154.526093,173.432892 
	C157.468521,176.945816 160.981247,179.981064 164.002075,182.999115 
	C165.104202,182.543610 165.558258,182.504364 165.668549,182.289062 
	C171.089981,171.703400 165.872406,154.448227 155.389801,149.234802 
	C149.768127,146.438904 145.393066,142.748962 143.483932,136.669540 
	C143.162277,135.645248 143.805267,134.318069 144.002548,133.130829 
	C144.969315,133.368820 146.547562,133.322037 146.810974,133.887604 
	C150.667969,142.168869 159.383163,142.874863 167.104355,147.610779 
	C166.592148,144.758331 166.296188,143.110199 165.926178,141.075775 
z"/>
<path fill="#30684B" opacity="1.000000" stroke="none" 
	d="
M131.328247,257.273682 
	C117.677246,259.264862 104.435234,261.014679 91.235321,263.038879 
	C84.428879,264.082672 77.697289,265.614594 70.758781,266.219727 
	C95.481361,253.300705 122.176544,248.095642 149.945206,245.729950 
	C148.413162,252.696518 141.779358,256.630737 131.328247,257.273682 
z"/>
<path fill="#2F684A" opacity="1.000000" stroke="none" 
	d="
M240.534027,252.350769 
	C253.244629,256.050903 265.622650,259.464691 276.658569,266.703491 
	C270.973877,265.711304 265.307739,264.592926 259.600739,263.752197 
	C246.059570,261.757416 232.502365,259.869995 218.945023,257.986847 
	C210.508286,256.814972 202.143112,255.566238 196.855438,246.097336 
	C211.980408,246.503662 226.079224,249.238754 240.534027,252.350769 
z"/>
<path fill="#2F694A" opacity="1.000000" stroke="none" 
	d="
M243.713898,206.247894 
	C247.032944,210.468124 247.032944,210.468124 249.681122,206.919861 
	C256.961121,210.620514 259.558777,217.889526 256.258881,225.726257 
	C251.044952,225.563721 249.384384,221.510345 247.310654,217.739624 
	C246.534653,216.328598 245.014053,215.327072 243.832947,214.138824 
	C243.221970,215.635651 242.509979,217.101532 242.038132,218.641006 
	C241.757858,219.555466 241.855743,220.585831 241.776733,221.657272 
	C236.930878,222.935303 234.113663,220.061951 231.638245,216.945969 
	C229.154678,213.819702 227.032578,210.406296 224.379257,206.581314 
	C226.489166,206.312668 229.226700,205.964081 232.311066,205.571350 
	C232.835434,203.970428 233.421570,202.180954 234.343552,199.366074 
	C237.753769,201.841888 240.614014,203.918411 243.713898,206.247894 
z"/>
<path fill="#2F684A" opacity="1.000000" stroke="none" 
	d="
M99.249130,208.286972 
	C100.891289,207.883987 102.511314,207.396759 103.816246,206.467224 
	C106.821907,204.326202 109.674423,201.970184 113.714378,198.825485 
	C113.311676,207.764603 119.477982,205.441330 123.129120,206.331909 
	C120.238297,210.613037 117.868027,214.932983 114.682732,218.531479 
	C112.823975,220.631363 109.661736,221.577423 106.356567,223.457474 
	C106.173752,220.598358 106.278954,219.082306 105.926811,217.681198 
	C105.614029,216.436676 104.793869,215.319656 104.197662,214.146362 
	C102.958649,215.120117 101.521263,215.925323 100.521317,217.102219 
	C98.346855,219.661499 96.550056,222.559647 94.229309,224.962296 
	C93.734596,225.474457 90.878716,224.888199 90.451721,224.090302 
	C87.813240,219.159851 92.000473,208.923462 97.212059,207.136230 
	C97.681808,206.975128 98.452789,207.692444 99.249130,208.286972 
z"/>
<path fill="#2F694A" opacity="1.000000" stroke="none" 
	d="
M233.244720,152.224792 
	C236.379395,146.909058 240.707153,144.665176 247.130020,144.902863 
	C246.343613,147.917923 245.694794,150.405441 244.906570,153.427490 
	C250.127014,152.020172 255.150421,151.423477 259.736176,154.697540 
	C255.586288,161.883514 249.481247,164.277161 242.473511,161.062592 
	C239.528824,159.711823 237.519547,160.229660 234.755920,161.462708 
	C231.056015,163.113480 226.885757,163.710098 222.917465,164.759369 
	C222.832184,164.332993 222.746902,163.906616 222.661606,163.480240 
	C226.112183,159.820068 229.562744,156.159897 233.244720,152.224792 
z"/>
<path fill="#2F684A" opacity="1.000000" stroke="none" 
	d="
M118.271606,157.716583 
	C120.745308,159.545288 122.965759,161.119431 125.888725,163.191620 
	C120.297997,164.787903 116.000702,164.005722 112.305229,161.316895 
	C110.002014,159.641083 108.435608,159.385712 105.766922,160.701385 
	C99.892342,163.597534 92.817566,161.990601 89.330719,157.859787 
	C87.442558,155.622925 88.008728,153.941711 90.429077,153.438583 
	C94.184250,152.657959 98.077942,152.543671 102.161858,152.121155 
	C101.846649,150.105087 101.417824,147.362350 100.968262,144.486923 
	C110.381294,144.769028 113.888107,151.507523 118.271606,157.716583 
z"/>
<path fill="#30694B" opacity="1.000000" stroke="none" 
	d="
M161.735260,98.230728 
	C158.412109,95.116692 157.615891,91.638901 158.371933,87.272926 
	C166.241150,86.648804 169.820190,92.189331 173.888016,97.499466 
	C177.564026,91.725395 181.516296,86.710655 189.006851,87.145462 
	C190.558014,92.439636 188.378754,97.270660 183.596100,100.165596 
	C180.212219,102.213860 177.017319,104.574333 173.729645,106.801132 
	C170.299622,104.371407 166.150879,101.432564 161.735260,98.230728 
z"/>
<path fill="#30694B" opacity="1.000000" stroke="none" 
	d="
M71.934563,171.564789 
	C79.199104,170.576996 82.524590,171.714508 87.888000,176.704254 
	C83.617546,181.597168 82.132767,189.999207 72.165558,188.606201 
	C72.381737,186.231674 72.593124,183.909805 72.791496,181.730927 
	C69.784416,180.890915 66.712753,180.032867 63.641102,179.174820 
	C63.444305,178.523682 63.247509,177.872559 63.050709,177.221420 
	C65.894119,175.402023 68.737534,173.582626 71.934563,171.564789 
z"/>
<path fill="#2F684A" opacity="1.000000" stroke="none" 
	d="
M273.039124,188.934158 
	C265.046295,188.555618 263.973358,181.023621 259.686584,177.020416 
	C267.853485,168.326248 278.294983,168.865189 284.122437,179.153137 
	C280.844147,180.022903 277.801636,180.830109 274.607330,181.677597 
	C272.903839,183.745850 279.242950,187.397766 273.039124,188.934158 
z"/>
<path fill="#2F684B" opacity="1.000000" stroke="none" 
	d="
M194.248016,134.243225 
	C192.647369,135.292755 191.305634,136.087677 189.780807,136.991074 
	C187.628525,124.212898 198.659271,112.817825 209.799698,115.891869 
	C208.847000,121.683159 206.690918,126.350533 200.677505,128.804367 
	C198.309753,129.770538 196.545837,132.216507 194.248016,134.243225 
z"/>
<path fill="#2F694A" opacity="1.000000" stroke="none" 
	d="
M140.276321,123.499039 
	C139.308502,120.758141 138.522980,118.348343 137.727921,115.909325 
	C149.348007,112.791672 160.449799,125.768585 157.349915,136.510162 
	C151.610764,132.201874 146.034683,128.016006 140.276321,123.499039 
z"/>
<path fill="#2F684A" opacity="1.000000" stroke="none" 
	d="
M227.038147,115.018181 
	C228.799957,115.540894 230.183411,116.035233 231.544052,116.521416 
	C230.193756,123.200066 223.784439,125.875969 211.218781,124.512459 
	C214.228134,118.952118 216.893204,113.654236 219.993912,108.624939 
	C220.589523,107.658829 222.896378,107.747726 224.413788,107.349915 
	C224.591644,108.829346 225.107162,110.367531 224.862534,111.773460 
	C224.551575,113.560707 223.914154,115.085861 227.038147,115.018181 
z"/>
<path fill="#2F684A" opacity="1.000000" stroke="none" 
	d="
M132.370468,124.751732 
	C125.005562,125.723671 119.445595,123.644035 115.303276,116.814964 
	C118.106728,115.902039 120.527206,115.113823 123.061378,114.288582 
	C122.735771,112.069595 122.413719,109.874832 122.052956,107.416222 
	C127.280113,106.751198 130.161743,109.300117 131.749908,113.159096 
	C133.218582,116.727684 133.960220,120.595490 135.088425,124.565063 
	C134.577301,124.628212 133.650909,124.742668 132.370468,124.751732 
z"/>
<path fill="#2F684A" opacity="1.000000" stroke="none" 
	d="
M187.694794,68.812859 
	C190.799683,66.580528 193.641403,64.609474 197.536591,61.907726 
	C197.536591,65.235329 197.536591,66.784142 197.536591,68.321510 
	C199.276871,69.038643 201.035645,69.763390 202.842926,70.508125 
	C199.153809,77.258820 199.153809,77.258820 184.522125,81.897957 
	C183.218292,77.045151 184.539536,72.901321 187.694794,68.812859 
z"/>
<path fill="#2F684A" opacity="1.000000" stroke="none" 
	d="
M160.819366,81.209549 
	C157.013611,79.724228 153.314041,78.696922 150.065414,76.868439 
	C147.957352,75.681915 146.507233,73.326462 145.289246,72.047874 
	C147.693985,68.938492 149.512268,66.587448 151.710526,63.745052 
	C160.192108,64.784508 163.891754,72.703773 162.991714,80.504417 
	C162.952255,80.846397 161.767914,81.056282 160.819366,81.209549 
z"/>
<path fill="#2F694A" opacity="1.000000" stroke="none" 
	d="
M126.664368,225.829987 
	C124.261559,226.794403 122.161171,227.528290 120.021988,228.275726 
	C117.369095,218.644226 122.857536,209.839767 132.044174,207.973801 
	C135.738983,214.154419 133.695877,221.246887 126.664368,225.829987 
z"/>
<path fill="#30694B" opacity="1.000000" stroke="none" 
	d="
M215.034760,218.614212 
	C214.571228,214.879776 214.181961,211.538055 213.772919,208.026489 
	C222.468582,208.750000 229.461548,217.065659 229.010406,224.784454 
	C228.795593,228.459976 226.284500,228.822464 224.322815,227.454987 
	C220.934845,225.093292 218.148071,221.869202 215.034760,218.614212 
z"/>
<path fill="#2F684A" opacity="1.000000" stroke="none" 
	d="
M217.011566,143.295456 
	C216.428085,152.029099 208.910599,157.857742 200.676590,156.389877 
	C201.805756,146.754944 209.323410,140.528580 217.011566,143.295456 
z"/>
<path fill="#2F684A" opacity="1.000000" stroke="none" 
	d="
M142.739120,146.256317 
	C144.179932,149.747482 145.357239,152.978989 146.534561,156.210510 
	C143.055969,155.360870 138.891479,155.413498 136.277573,153.426407 
	C133.215149,151.098343 131.502380,146.994843 128.766632,143.026871 
	C135.154984,141.118088 138.921249,143.148376 142.739120,146.256317 
z"/>
<path fill="#30684B" opacity="1.000000" stroke="none" 
	d="
M202.726791,96.892654 
	C205.063568,95.528732 207.155472,94.454903 209.247375,93.381065 
	C209.830124,95.690018 210.808395,97.981125 210.913574,100.311638 
	C211.134811,105.213585 208.593094,108.697411 204.381714,111.078247 
	C201.382904,112.773582 199.724716,111.762733 200.108276,108.536568 
	C200.563004,104.711952 201.662109,100.963943 202.726791,96.892654 
z"/>
<path fill="#2F694A" opacity="1.000000" stroke="none" 
	d="
M79.113052,141.115448 
	C76.159859,139.625305 73.593582,138.221848 70.968224,136.786087 
	C76.253128,129.810120 86.852905,130.613953 93.316559,138.314224 
	C88.808617,140.315674 84.799339,143.414139 79.113052,141.115448 
z"/>
<path fill="#2F684A" opacity="1.000000" stroke="none" 
	d="
M267.212830,141.367325 
	C262.624146,140.825562 258.393219,140.103058 253.693054,139.300415 
	C259.027679,131.047684 267.607269,129.950851 277.392242,136.284790 
	C273.645569,138.154678 270.608063,139.670639 267.212830,141.367325 
z"/>
<path fill="#30694B" opacity="1.000000" stroke="none" 
	d="
M137.025513,102.501343 
	C137.008575,101.410202 136.880997,100.719170 137.022308,100.088379 
	C137.531601,97.814835 138.131516,95.561584 138.697205,93.300667 
	C140.889008,94.817879 143.718735,95.892868 145.140518,97.943878 
	C148.147614,102.281792 148.984116,107.222008 146.207703,112.464554 
	C141.627701,110.611893 138.019577,108.067307 137.025513,102.501343 
z"/>
<path fill="#2F684A" opacity="1.000000" stroke="none" 
	d="
M121.884262,171.417786 
	C123.968529,167.156036 127.886452,168.533203 130.315338,169.506699 
	C134.346527,171.122375 137.783615,174.220383 141.699844,176.847534 
	C135.584244,183.001328 126.039856,179.879227 121.884262,171.417786 
z"/>
<path fill="#2F684A" opacity="1.000000" stroke="none" 
	d="
M170.274826,76.622391 
	C172.483505,77.762352 174.114059,79.932312 176.532578,77.202667 
	C177.425949,76.194344 179.592728,76.314255 181.178726,75.919594 
	C181.118576,78.081238 181.736649,80.593521 180.842102,82.323792 
	C179.438202,85.039284 177.013824,87.227188 175.088638,89.557388 
	C169.625168,86.551491 165.837814,83.881165 166.011368,78.131569 
	C166.116745,74.640640 167.581787,74.510559 170.274826,76.622391 
z"/>
<path fill="#2F694A" opacity="1.000000" stroke="none" 
	d="
M269.130219,157.062317 
	C273.718842,158.537994 277.903107,160.023972 282.431000,161.631989 
	C276.796387,169.313660 266.044434,168.127151 260.387054,159.876968 
	C263.261353,158.910339 265.993591,157.991486 269.130219,157.062317 
z"/>
<path fill="#2F684B" opacity="1.000000" stroke="none" 
	d="
M211.223022,179.998810 
	C209.497604,179.897781 208.190155,179.797714 206.864731,179.696274 
	C208.001389,172.608719 217.518295,166.738892 223.823029,169.313171 
	C224.569138,169.617813 225.174240,172.518417 224.599182,173.429733 
	C221.659485,178.088455 217.366287,180.585678 211.223022,179.998810 
z"/>
<path fill="#2F684A" opacity="1.000000" stroke="none" 
	d="
M67.949661,160.579285 
	C74.226494,156.016342 80.289780,156.687256 86.541664,159.851959 
	C83.223892,166.977585 74.640182,168.281250 68.229088,165.474213 
	C65.852463,164.433640 65.065025,162.693497 67.949661,160.579285 
z"/>
<path fill="#2F684A" opacity="1.000000" stroke="none" 
	d="
M265.342651,118.031609 
	C267.356201,118.097763 268.960327,118.178833 270.561981,118.259781 
	C270.154449,126.461868 263.607727,130.815186 254.255936,129.534698 
	C254.404129,123.808884 257.448090,120.533730 265.342651,118.031609 
z"/>
<path fill="#2F684A" opacity="1.000000" stroke="none" 
	d="
M214.846893,77.480789 
	C213.151474,82.461403 210.783218,86.372955 205.807861,88.192368 
	C203.421051,77.310959 205.991974,70.672684 213.754272,69.206329 
	C214.144180,71.846359 214.531067,74.466034 214.846893,77.480789 
z"/>
<path fill="#2F684B" opacity="1.000000" stroke="none" 
	d="
M136.165619,84.625175 
	C134.952606,80.618004 133.833389,76.909607 133.107468,73.125755 
	C132.901779,72.053612 133.702133,69.849899 134.289017,69.758583 
	C135.531601,69.565247 137.156448,70.118210 138.238632,70.899582 
	C143.026627,74.356735 144.053467,80.338539 141.216446,88.325768 
	C139.546387,87.134186 137.977478,86.014763 136.165619,84.625175 
z"/>
<path fill="#30684B" opacity="1.000000" stroke="none" 
	d="
M92.703400,125.460388 
	C93.226379,126.969696 93.563286,128.147934 93.918175,129.389069 
	C84.993385,130.819092 79.203789,127.288307 76.710289,119.308189 
	C82.099075,116.594948 87.918373,118.737984 92.703400,125.460388 
z"/>
<path fill="#2F684A" opacity="1.000000" stroke="none" 
	d="
M151.026367,108.580086 
	C150.731400,103.870720 151.182953,99.887711 155.491882,97.531029 
	C160.863251,101.924774 161.357422,107.489082 156.545181,117.914711 
	C154.428101,114.485046 152.734039,111.740692 151.026367,108.580086 
z"/>
<path fill="#2F684A" opacity="1.000000" stroke="none" 
	d="
M101.083641,124.177689 
	C98.856346,122.694572 96.958778,121.391762 94.904556,119.981400 
	C102.441475,113.900276 109.339493,115.429726 114.856766,123.207855 
	C110.496773,125.855896 106.098053,126.377190 101.083641,124.177689 
z"/>
<path fill="#2F684B" opacity="1.000000" stroke="none" 
	d="
M233.151703,121.836731 
	C239.293396,115.209923 244.607635,114.417648 251.540588,118.776794 
	C248.325455,124.469429 239.945328,127.267342 234.202484,124.436081 
	C233.593628,124.135910 233.422867,122.947075 233.151703,121.836731 
z"/>
<path fill="#2F684A" opacity="1.000000" stroke="none" 
	d="
M188.022461,104.474304 
	C189.034653,101.722382 190.034149,99.391891 191.278885,96.489609 
	C195.477478,100.371902 196.964523,104.201141 196.113861,108.901337 
	C195.211838,113.885239 194.447830,114.823975 189.319473,116.553192 
	C188.869293,112.546127 188.439529,108.720932 188.022461,104.474304 
z"/>
<path fill="#2F694A" opacity="1.000000" stroke="none" 
	d="
M225.425171,196.014252 
	C226.960098,196.903381 228.122101,197.716354 229.328232,198.560211 
	C223.495758,204.604187 216.573151,204.572006 208.282974,198.340836 
	C213.649658,194.437363 219.172607,194.157745 225.425171,196.014252 
z"/>
<path fill="#2F684A" opacity="1.000000" stroke="none" 
	d="
M128.075500,195.003372 
	C131.913208,195.739563 135.319901,196.476944 139.324051,197.343643 
	C132.217148,204.564819 124.254265,204.788940 117.529800,197.816299 
	C121.270996,196.776306 124.457733,195.890442 128.075500,195.003372 
z"/>
<path fill="#2F684A" opacity="1.000000" stroke="none" 
	d="
M168.787994,109.337372 
	C171.260910,113.742531 173.203552,117.894714 170.533218,122.589333 
	C165.107239,120.901634 161.440369,116.811043 161.247101,111.589973 
	C161.182465,109.844055 162.453949,108.048683 163.114685,106.275925 
	C164.922424,107.202362 166.730179,108.128799 168.787994,109.337372 
z"/>
<path fill="#2F684A" opacity="1.000000" stroke="none" 
	d="
M241.209946,173.250458 
	C237.461731,174.858139 233.982956,176.205582 229.972610,177.758926 
	C230.225220,168.079956 235.728699,164.030212 245.468414,165.730453 
	C244.037048,168.335449 242.758224,170.662842 241.209946,173.250458 
z"/>
<path fill="#2F684A" opacity="1.000000" stroke="none" 
	d="
M113.508835,167.312805 
	C114.083214,167.725800 114.448097,167.899399 114.555534,168.173813 
	C115.587204,170.808746 116.575439,173.460663 117.576111,176.107727 
	C114.480789,175.608322 110.860893,175.935516 108.428375,174.391754 
	C105.644302,172.624878 103.915131,169.195786 101.727615,166.488907 
	C102.113312,165.815964 102.499001,165.143021 102.884689,164.470078 
	C106.316422,165.353439 109.748154,166.236801 113.508835,167.312805 
z"/>
<path fill="#2F684A" opacity="1.000000" stroke="none" 
	d="
M185.916656,113.469177 
	C184.329544,118.465042 181.675781,121.900871 176.395203,123.087128 
	C175.671494,117.658249 175.284088,112.589722 179.806244,108.773033 
	C181.088211,107.691055 182.791260,107.107964 184.301178,106.296066 
	C184.864700,107.889580 185.487610,109.465744 185.961060,111.085579 
	C186.138321,111.691971 185.967651,112.400047 185.916656,113.469177 
z"/>
<path fill="#2F694A" opacity="1.000000" stroke="none" 
	d="
M125.972839,145.419800 
	C125.986221,147.636505 125.986221,149.435135 125.986221,153.081314 
	C122.684654,151.210602 120.120651,150.339371 118.369431,148.633652 
	C115.511452,145.849930 115.312424,141.171158 117.349174,136.155304 
	C121.950188,137.467346 124.904770,140.229614 125.972839,145.419800 
z"/>
<path fill="#2F684A" opacity="1.000000" stroke="none" 
	d="
M231.093872,138.228210 
	C232.867798,145.375717 229.502563,150.717728 222.726913,152.026688 
	C220.614944,144.460068 222.699417,138.892517 228.546066,136.905289 
	C229.181717,136.689240 230.172623,137.518326 231.093872,138.228210 
z"/>
<path fill="#2F684A" opacity="1.000000" stroke="none" 
	d="
M248.843903,188.337799 
	C247.442947,187.184845 246.311432,186.287231 245.006500,185.252060 
	C247.687454,181.024109 251.929321,181.360184 255.245789,182.305862 
	C258.265472,183.166962 260.707489,186.054031 264.094025,188.558212 
	C257.922913,191.454407 253.439651,191.724854 248.843903,188.337799 
z"/>
<path fill="#2F684A" opacity="1.000000" stroke="none" 
	d="
M152.169312,211.884293 
	C145.473389,212.486877 140.398636,210.679520 137.352249,204.532761 
	C141.014404,200.622818 145.185135,201.529648 148.704605,203.693100 
	C151.292252,205.283768 154.466248,207.631729 152.169312,211.884293 
z"/>
<path fill="#2F684A" opacity="1.000000" stroke="none" 
	d="
M86.595657,190.248932 
	C85.084541,187.708649 87.339317,183.162277 90.746078,182.389908 
	C94.542061,181.529312 98.593376,181.235931 101.785408,184.470993 
	C98.610588,189.698532 93.590141,191.640854 86.595657,190.248932 
z"/>
<path fill="#30694B" opacity="1.000000" stroke="none" 
	d="
M194.983276,208.163574 
	C200.489441,201.359726 203.542389,200.613953 210.159241,204.128433 
	C207.127045,209.739227 202.185226,212.545761 196.762680,212.007065 
	C194.137192,211.746262 193.558716,210.743851 194.983276,208.163574 
z"/>
<path fill="#2E684A" opacity="1.000000" stroke="none" 
	d="
M185.999405,165.112823 
	C186.888733,158.684525 189.954620,155.574936 195.214035,155.359131 
	C197.066360,162.558182 195.089783,166.246613 186.383957,170.907959 
	C186.240067,168.908371 186.118301,167.215912 185.999405,165.112823 
z"/>
<path fill="#2F684A" opacity="1.000000" stroke="none" 
	d="
M87.079651,167.792938 
	C87.438080,163.823318 90.162018,164.921646 91.977509,165.263062 
	C96.586800,166.129883 99.785378,171.138809 99.422501,176.342484 
	C93.236908,177.570023 89.811531,175.306335 87.079651,167.792938 
z"/>
<path fill="#2F684A" opacity="1.000000" stroke="none" 
	d="
M161.992065,165.990814 
	C161.891754,167.696259 161.789352,168.996185 161.684448,170.327927 
	C154.201691,168.680313 151.062164,163.437973 152.606033,155.502930 
	C158.186264,156.070541 161.048187,159.145477 161.992065,165.990814 
z"/>
<path fill="#2F684A" opacity="1.000000" stroke="none" 
	d="
M247.389908,135.025879 
	C245.125885,139.746140 241.379501,141.344147 236.894760,141.868744 
	C235.181091,134.813309 240.284790,128.830826 247.585617,129.483093 
	C247.585617,131.191971 247.585617,132.938599 247.389908,135.025879 
z"/>
<path fill="#2F684A" opacity="1.000000" stroke="none" 
	d="
M108.852966,130.903152 
	C109.659019,134.378174 110.465080,137.853195 111.375816,141.779526 
	C105.190804,141.579620 102.094337,138.587128 99.973541,134.506454 
	C99.295135,133.201111 99.586617,131.391693 99.434334,129.812912 
	C101.123993,129.821991 102.837944,129.660080 104.495445,129.895554 
	C105.765846,130.076019 106.964996,130.758026 108.550842,131.086288 
	C108.905838,130.955612 108.852966,130.903152 108.852966,130.903152 
z"/>
<path fill="#2F684A" opacity="1.000000" stroke="none" 
	d="
M102.319672,106.660812 
	C101.885529,105.422630 101.636147,104.511177 101.379128,103.571823 
	C109.286476,102.263863 114.583138,104.911415 116.676804,111.015457 
	C111.076431,113.784966 106.194229,112.397400 102.319672,106.660812 
z"/>
<path fill="#30694B" opacity="1.000000" stroke="none" 
	d="
M248.110321,173.352020 
	C251.309235,166.200729 253.628143,164.725510 260.037292,165.400360 
	C259.960358,170.589050 256.865662,175.353653 252.569290,176.608200 
	C250.136246,177.318665 247.793701,177.477982 248.110321,173.352020 
z"/>
<path fill="#2F684A" opacity="1.000000" stroke="none" 
	d="
M208.301300,135.548370 
	C212.148117,128.895432 213.933395,128.149796 221.958008,129.537308 
	C220.634171,135.242416 216.371338,138.968994 210.859055,138.758484 
	C209.928009,138.722946 209.065048,136.904739 208.301300,135.548370 
z"/>
<path fill="#30694B" opacity="1.000000" stroke="none" 
	d="
M245.151459,103.404663 
	C244.792419,110.837997 237.595642,114.639542 230.941711,111.280296 
	C233.291077,105.132767 237.360870,102.765930 245.151459,103.404663 
z"/>
<path fill="#2F684A" opacity="1.000000" stroke="none" 
	d="
M124.255692,97.366516 
	C124.674149,94.772072 125.211815,92.561691 125.749481,90.351318 
	C127.858284,91.987183 131.030212,93.233864 131.807495,95.357162 
	C132.784973,98.027290 131.803223,101.414619 131.666901,104.492470 
	C127.461418,104.164810 125.474785,101.437241 124.255692,97.366516 
z"/>
<path fill="#2F684A" opacity="1.000000" stroke="none" 
	d="
M131.891113,137.395294 
	C129.181900,135.112839 126.802666,133.036438 123.760300,130.381317 
	C133.706848,127.406830 138.118423,129.911346 139.552155,138.289642 
	C137.044220,138.054184 134.632660,137.827759 131.891113,137.395294 
z"/>
<path fill="#2F684A" opacity="1.000000" stroke="none" 
	d="
M194.267426,91.409485 
	C193.702286,86.193192 195.035965,82.323349 199.818512,80.236290 
	C204.190292,86.186043 202.669937,92.244217 195.760422,95.762901 
	C195.293289,94.406204 194.842712,93.097626 194.267426,91.409485 
z"/>
<path fill="#2F684A" opacity="1.000000" stroke="none" 
	d="
M147.914307,80.334824 
	C153.577744,84.549507 154.788483,90.717606 151.283936,95.588501 
	C144.484604,91.762299 143.074112,86.018837 147.914307,80.334824 
z"/>
<path fill="#2F684A" opacity="1.000000" stroke="none" 
	d="
M126.668198,86.140793 
	C123.416008,82.550369 123.480965,78.832748 124.735039,74.869026 
	C131.803543,76.415245 134.693497,82.690407 131.049072,88.906975 
	C129.677414,88.070061 128.308029,87.234543 126.668198,86.140793 
z"/>
<path fill="#2F684A" opacity="1.000000" stroke="none" 
	d="
M216.623413,78.836418 
	C218.806213,77.528481 220.770294,76.543686 222.734375,75.558884 
	C222.980392,77.696426 224.112106,80.305336 223.279892,81.869049 
	C221.754898,84.734489 219.070724,86.983002 216.869888,89.488747 
	C216.139023,89.097450 215.408157,88.706154 214.677292,88.314857 
	C215.253098,85.263092 215.828903,82.211327 216.623413,78.836418 
z"/>
<path fill="#30694B" opacity="1.000000" stroke="none" 
	d="
M216.055756,94.516586 
	C218.070496,92.812920 219.836151,91.412514 221.737259,89.904694 
	C224.700470,97.281769 222.511749,103.430817 214.847931,104.509254 
	C215.179489,101.158401 215.493073,97.989120 216.055756,94.516586 
z"/>
<path fill="#2F684A" opacity="1.000000" stroke="none" 
	d="
M106.985870,87.041214 
	C112.135933,90.584839 111.183128,95.232925 110.523834,100.042747 
	C104.517296,98.319725 101.617249,93.755898 103.225128,88.569160 
	C103.480751,87.744553 105.451790,87.451721 106.985870,87.041214 
z"/>
<path fill="#2F684A" opacity="1.000000" stroke="none" 
	d="
M240.988266,86.851395 
	C242.200455,87.340363 243.699478,87.895195 243.863831,88.716980 
	C244.910660,93.950447 243.061905,98.006866 238.303879,100.615662 
	C234.370773,96.292213 235.074600,92.237015 240.988266,86.851395 
z"/>
<path fill="#2E684A" opacity="1.000000" stroke="none" 
	d="
M113.700058,89.029961 
	C112.867805,85.973106 112.275642,83.208504 111.656288,80.317009 
	C119.219627,79.846703 122.554283,85.259125 119.645569,92.792992 
	C117.677078,91.595505 115.808609,90.458862 113.700058,89.029961 
z"/>
<path fill="#2F684B" opacity="1.000000" stroke="none" 
	d="
M146.956573,221.044250 
	C146.614349,225.031570 144.095337,224.250351 142.182953,223.472412 
	C138.208908,221.855759 137.632858,218.083740 137.585114,214.422211 
	C137.577499,213.838684 140.751343,212.466309 140.995834,212.743790 
	C143.171326,215.212784 145.018631,217.970932 146.956573,221.044250 
z"/>
<path fill="#2F684A" opacity="1.000000" stroke="none" 
	d="
M202.644012,215.721024 
	C204.824799,214.152893 206.776794,212.885422 208.925781,211.490051 
	C211.057083,219.330353 209.259521,222.341995 200.392487,225.103989 
	C201.172684,221.600906 201.793976,218.811295 202.644012,215.721024 
z"/>
<path fill="#2F684A" opacity="1.000000" stroke="none" 
	d="
M230.199265,81.324493 
	C231.591080,80.460815 232.722107,79.855469 233.850357,79.251617 
	C237.182281,85.459633 234.696198,90.503006 227.416885,92.431374 
	C226.719833,88.416260 226.276535,84.562561 230.199265,81.324493 
z"/>
<path fill="#2F694A" opacity="1.000000" stroke="none" 
	d="
M73.352852,151.120453 
	C71.700241,149.798843 70.409645,148.628845 69.019455,147.368561 
	C75.610260,143.404221 79.365425,144.151306 84.160629,150.305222 
	C80.848053,153.052292 77.280144,152.151611 73.352852,151.120453 
z"/>
<path fill="#2F684A" opacity="1.000000" stroke="none" 
	d="
M264.921082,151.797836 
	C263.354156,148.752747 265.364258,145.782181 269.561554,145.216553 
	C272.163513,144.865921 274.899780,145.511642 278.192902,145.755905 
	C275.203186,152.460312 270.280701,152.241562 264.921082,151.797836 
z"/>
<path fill="#2F684A" opacity="1.000000" stroke="none" 
	d="
M166.830200,59.670410 
	C173.177734,62.410625 172.099274,67.469749 171.682648,72.408592 
	C164.578857,71.220627 162.540344,65.984207 166.830200,59.670410 
z"/>
<path fill="#2F684A" opacity="1.000000" stroke="none" 
	d="
M175.614502,65.821083 
	C177.158600,63.389160 178.513916,61.292839 180.052979,58.912346 
	C184.743607,65.050095 183.582031,69.431030 176.124939,73.203796 
	C175.865311,70.587097 175.645508,68.371887 175.614502,65.821083 
z"/>
<path fill="#2F684A" opacity="1.000000" stroke="none" 
	d="
M97.227066,107.284180 
	C91.057762,104.644218 90.148117,102.660713 91.697731,95.930588 
	C98.118515,96.871384 100.694092,101.871719 97.227066,107.284180 
z"/>
<path fill="#2F684A" opacity="1.000000" stroke="none" 
	d="
M253.543625,115.923111 
	C251.429810,114.823967 249.712418,113.761681 247.730042,112.535484 
	C253.287933,108.482948 257.644318,108.613876 262.385010,112.467354 
	C260.675507,116.306984 257.299683,116.114044 253.543625,115.923111 
z"/>
<path fill="#2F684A" opacity="1.000000" stroke="none" 
	d="
M255.737610,103.443893 
	C253.773849,105.044342 251.985428,106.310028 249.958389,107.744591 
	C247.882156,99.548973 249.386795,96.826515 257.003967,95.655693 
	C256.611359,98.337685 256.262146,100.723412 255.737610,103.443893 
z"/>
<path fill="#30684B" opacity="1.000000" stroke="none" 
	d="
M87.182175,110.542191 
	C91.419456,110.458473 95.336197,110.620453 100.411110,110.830330 
	C95.601273,116.152412 91.387352,117.140999 87.446281,115.179085 
	C84.889748,113.906418 84.707008,112.565277 87.182175,110.542191 
z"/>
<path fill="#2E684A" opacity="1.000000" stroke="none" 
	d="
M117.762634,95.292648 
	C118.695732,96.658646 119.834885,97.729355 119.921120,98.879051 
	C120.064499,100.790421 119.532089,102.752487 119.284302,104.693199 
	C117.293747,103.309578 114.597115,102.325699 113.520744,100.424507 
	C112.538719,98.689949 113.312622,95.961266 113.312622,92.955673 
	C114.989693,93.788490 116.242607,94.410675 117.762634,95.292648 
z"/>
<path fill="#2F684A" opacity="1.000000" stroke="none" 
	d="
M230.725983,104.586494 
	C227.062469,104.887939 225.482071,101.605644 227.715759,98.254410 
	C229.061783,96.234932 231.341171,94.837563 233.634918,92.769539 
	C236.266220,98.224388 234.369781,101.491554 230.725983,104.586494 
z"/>
<path fill="#30694B" opacity="1.000000" stroke="none" 
	d="
M92.329254,148.756439 
	C89.503067,148.500366 87.049210,148.131119 83.844193,147.648834 
	C87.672852,141.771408 92.265244,142.791626 97.567955,144.228333 
	C95.945831,145.699982 94.323708,147.171616 92.329254,148.756439 
z"/>
<path fill="#2F684A" opacity="1.000000" stroke="none" 
	d="
M108.929794,130.984100 
	C112.570175,126.283813 116.828163,125.649353 122.139984,129.047791 
	C119.463768,133.707077 116.855507,134.117386 109.249176,130.958252 
	C108.852966,130.903152 108.905838,130.955612 108.929794,130.984100 
z"/>
<path fill="#2F684A" opacity="1.000000" stroke="none" 
	d="
M226.461639,127.829514 
	C230.652618,126.229919 233.967056,127.140335 237.036835,129.740707 
	C234.037537,133.424286 228.815445,134.123306 225.992157,131.207047 
	C225.477280,130.675186 226.054794,129.085739 226.461639,127.829514 
z"/>
<path fill="#2F694A" opacity="1.000000" stroke="none" 
	d="
M257.860962,148.953949 
	C254.956238,147.629501 252.436081,146.295563 249.915939,144.961624 
	C250.224136,144.161285 250.532318,143.360931 250.840515,142.560593 
	C254.820084,143.315338 258.799652,144.070099 262.779205,144.824844 
	C262.787506,145.473358 262.795807,146.121857 262.804108,146.770370 
	C261.284576,147.495071 259.765045,148.219772 257.860962,148.953949 
z"/>
</svg>